<?xml version="1.0" encoding="UTF-8" standalone="no"?>
<svg
   xmlns:svg="http://www.w3.org/2000/svg"
   xmlns="http://www.w3.org/2000/svg"
   width="240.0"
   height="180.0"

>
    <g transform="scale(2.20454076850486, -2.20454076850486)   translate(114.05636610445897,-71.53417267350133)" stroke-width="0.4536092116265145"  fill="none">
       <!-- hidden lines -->
       <g  stroke="rgb(160,160,160)" fill="none" stroke-dasharray="0.4536092116265145,0.4536092116265145" >
			<path d="M2.121320343559643,38.78358759406699 L17.677669529663692,47.765049984271975 " />
			<path d="M2.121320343559643,1.2247448713915892 L2.121320343559643,38.78358759406699 " />
			<path d="M2.121320343559643,38.78358759406699 L-23.334523779156076,53.48052605076606 " />
			<path d="M-7.778174593052023,34.70110468942836 L-7.0710678118654755,34.2928563989645 " />
			<path d="M-7.071067811865476,16.32993161855452 L8.485281374238571,25.31139400875951 " />
			<path d="M-7.071067811865476,34.292856398964496 L-7.071067811865476,16.32993161855452 " />
			<path d="M-7.071067811865476,16.32993161855452 L-23.334523779156072,25.719642299223374 " />

       </g>

       <!-- solid lines -->
       <g  stroke="rgb(0,0,0)" fill="none">
			<path d="M2.121320343559643,1.2247448713915892 L17.677669529663692,10.206207261596578 " />
			<path d="M17.67766952966369,10.206207261596576 L17.67766952966369,47.765049984271975 " />
			<path d="M17.67766952966369,47.765049984271975 L-7.778174593052029,62.46198844097105 " />
			<path d="M-23.334523779156072,53.48052605076606 L-7.778174593052023,62.46198844097105 " />
			<path d="M-7.778174593052025,62.46198844097105 L-7.778174593052025,52.66402946983833 " />
			<path d="M-23.334523779156072,43.68256707963335 L-7.778174593052023,52.66402946983834 " />
			<path d="M-23.334523779156072,53.48052605076606 L-23.334523779156072,43.682567079633344 " />
			<path d="M-7.778174593052025,52.66402946983834 L8.485281374238571,43.274318789169484 " />
			<path d="M-7.071067811865476,34.292856398964496 L8.485281374238571,43.274318789169484 " />
			<path d="M-23.334523779156072,43.68256707963335 L-7.778174593052023,34.70110468942836 " />
			<path d="M8.48528137423857,43.274318789169484 L8.48528137423857,25.31139400875951 " />
			<path d="M8.48528137423857,25.31139400875951 L-7.778174593052027,34.70110468942836 " />
			<path d="M-23.334523779156072,25.719642299223374 L-7.778174593052023,34.70110468942836 " />
			<path d="M-7.778174593052025,34.70110468942836 L-7.778174593052025,24.903145718295647 " />
			<path d="M-23.334523779156072,15.92168332809066 L-7.778174593052023,24.903145718295647 " />
			<path d="M-23.334523779156072,25.719642299223374 L-23.334523779156072,15.92168332809066 " />
			<path d="M-7.778174593052025,24.903145718295647 L17.677669529663692,10.206207261596573 " />
			<path d="M-23.334523779156072,15.92168332809066 L2.1213203435596455,1.2247448713915858 " />

       </g>
    </g>
    
</svg>
